<svg width="200" height="200" viewBox="0 0 200 200" xmlns="http://www.w3.org/2000/svg">
  <circle cx="100" cy="100" r="100" fill="#000000"/>
  <path fill="#FFFFFF" d="M141.5,58.5h-5.9c-0.6-5.8-5.5-10.3-11.4-10.3H75.8c-5.9,0-10.8,4.5-11.4,10.3h-5.9
	c-7.3,0-13.2,5.9-13.2,13.2v67.6c0,5.8,3.8,10.7,9.1,12.5v12.5c0,4,3.2,7.3,7.3,7.3h2.9c4,0,7.3-3.2,7.3-7.3v-5.1h56v5.1
	c0,4,3.2,7.3,7.3,7.3h2.9c4,0,7.3-3.2,7.3-7.3v-12.5c5.3-1.8,9.1-6.7,9.1-12.5V71.7C154.7,64.4,148.8,58.5,141.5,58.5z M73.5,145.2
	c-4.4,0-8.1-3.6-8.1-8.1s3.6-8.1,8.1-8.1s8.1,3.6,8.1,8.1S77.9,145.2,73.5,145.2z M100,105.6H58.5V71.7h82.9v33.8H100z M126.5,145.2
	c-4.4,0-8.1-3.6-8.1-8.1s3.6-8.1,8.1-8.1s8.1,3.6,8.1,8.1S130.9,145.2,126.5,145.2z"/>
</svg>
